<svg width="19" height="17" viewBox="0 0 19 17" fill="none" xmlns="http://www.w3.org/2000/svg">
<path d="M17.7404 3.90495H12.7404M4.40706 3.90495H1.07373M17.7404 13.0716H14.4071M6.07373 13.0716H1.07373M7.7404 6.82161C8.12342 6.82161 8.50269 6.74617 8.85656 6.5996C9.21042 6.45302 9.53195 6.23818 9.80279 5.96734C10.0736 5.6965 10.2885 5.37497 10.435 5.02111C10.5816 4.66724 10.6571 4.28797 10.6571 3.90495C10.6571 3.52193 10.5816 3.14265 10.435 2.78879C10.2885 2.43492 10.0736 2.11339 9.80279 1.84255C9.53195 1.57172 9.21042 1.35688 8.85656 1.2103C8.50269 1.06372 8.12342 0.988281 7.7404 0.988281C6.96685 0.988281 6.22498 1.29557 5.678 1.84255C5.13102 2.38953 4.82373 3.1314 4.82373 3.90495C4.82373 4.6785 5.13102 5.42036 5.678 5.96734C6.22498 6.51432 6.96685 6.82161 7.7404 6.82161ZM11.0737 15.9883C11.8473 15.9883 12.5891 15.681 13.1361 15.134C13.6831 14.587 13.9904 13.8452 13.9904 13.0716C13.9904 12.2981 13.6831 11.5562 13.1361 11.0092C12.5891 10.4622 11.8473 10.1549 11.0737 10.1549C10.3002 10.1549 9.55832 10.4622 9.01133 11.0092C8.46435 11.5562 8.15706 12.2981 8.15706 13.0716C8.15706 13.8452 8.46435 14.587 9.01133 15.134C9.55832 15.681 10.3002 15.9883 11.0737 15.9883Z" stroke="#696969" stroke-width="1.5" stroke-miterlimit="10" stroke-linecap="round" stroke-linejoin="round"/>
</svg>
